<?xml version="1.0" encoding="UTF-8" standalone="no"?>
<!DOCTYPE svg PUBLIC "-//W3C//DTD SVG 1.1//EN" "http://www.w3.org/Graphics/SVG/1.1/DTD/svg11.dtd">
<svg xmlns="http://www.w3.org/2000/svg" version="1.1" viewBox="0.00 0.00 499.00 500.00">
<path fill="#000000" d="
  M 162.14 353.00
  C 161.99 251.11 162.25 149.37 162.31 47.31
  A 2.24 2.23 89.6 0 1 164.51 45.07
  C 203.55 44.47 242.68 42.52 281.80 45.01
  Q 293.43 45.75 301.68 46.97
  Q 373.46 57.53 423.14 110.61
  C 448.79 138.02 467.22 172.92 474.33 210.02
  C 486.97 275.87 464.35 345.55 416.49 392.42
  C 385.07 423.20 343.64 443.69 299.49 448.20
  C 281.19 450.08 263.31 450.83 244.51 450.79
  Q 158.75 450.65 73.28 450.41
  Q 70.11 450.40 70.11 447.23
  L 69.94 48.52
  A 3.31 3.31 0.0 0 1 73.23 45.21
  L 112.25 45.01
  A 3.49 3.48 89.8 0 1 115.75 48.50
  L 115.83 404.18
  A 1.86 1.85 90.0 0 0 117.68 406.04
  L 225.79 406.04
  A 3.13 3.12 -89.5 0 0 228.91 402.96
  L 229.55 362.22
  Q 229.62 358.20 225.60 358.20
  Q 197.37 358.22 168.61 358.15
  C 164.69 358.14 162.15 357.36 162.14 353.00
  Z
  M 328.02 150.96
  C 366.97 173.05 388.67 213.47 384.07 258.39
  C 378.25 315.27 333.35 355.86 276.46 358.31
  Q 274.02 358.41 274.03 360.24
  Q 274.17 382.12 274.48 403.90
  A 1.82 1.82 0.0 0 0 276.38 405.69
  C 334.04 403.03 382.56 376.98 410.86 326.11
  C 440.23 273.32 437.35 202.53 401.32 153.52
  C 376.28 119.47 338.17 97.61 296.22 91.68
  C 267.82 87.67 239.08 89.08 210.20 89.65
  A 2.61 2.60 89.4 0 0 207.65 92.26
  L 207.65 134.27
  A 3.06 3.06 0.0 0 0 210.76 137.33
  C 224.45 137.10 238.20 136.83 251.94 136.39
  C 279.05 135.53 304.92 137.85 328.02 150.96
  Z
  M 207.88 184.85
  L 207.88 310.65
  A 3.33 3.33 0.0 0 0 211.21 313.98
  L 272.30 313.98
  A 67.14 65.79 0.0 0 0 339.44 248.19
  L 339.44 247.31
  A 67.14 65.79 -0.0 0 0 272.30 181.52
  L 211.21 181.52
  A 3.33 3.33 0.0 0 0 207.88 184.85
  Z"
/>
</svg>
